# xmcd CD database file
#
# Track frame offsets:
#	150
#	27098
#	48875
#	74888
#	94638
#	116293
#	142073
#	158476
#	177881
#	202843
#	226669
#	250436
#	273106
#	301351
#	317869
#
# Disc length: 4798 seconds
#
# Revision: 1
# Processed by: cddbd v1.5.2PL0 Copyright (c) Steve Scherf et al.
# Submitted via: CDex 1.70beta2
#
DISCID=c312bc0f
DTITLE=yasuyuki terasima  - jazz bar 2015
DYEAR=2015
DGENRE=Jazz
TTITLE0=Highland Park [Anders Persson]
TTITLE1=Has That Summer Gone [Trio Acoustic]
TTITLE2=Farmors Vaggvisa [Mathias Landaeus]
TTITLE3=Tres Notas Para Decir Te Quiero [Oliver Strauch´s Trio Duende]
TTITLE4=Hymne a l'Amour [Ron Davis Trio]
TTITLE5=Tango 22 [Fabrizio Mocata]
TTITLE6=Impromptu [Bob Mamet Trio]
TTITLE7=Third Stop [Espen Eriksen Trio]
TTITLE8=Sleep Safe and Warm [Dorian Ford(p) Max de Wardener(b) Iian Pattinson(ds)]
TTITLE9=Valsang [Tingvall Trio]
TTITLE10=North Star [Mike Melvoin]
TTITLE11=Yoyo [Aaron Goldberg]
TTITLE12=Autumn Waltz [Piero Bassini]
TTITLE13=Derrick [Red Thread]
TTITLE14=Ausente{Pedro Neves}
EXTD=YEAR: 2015
EXTT0=
EXTT1=
EXTT2=
EXTT3=
EXTT4=
EXTT5=
EXTT6=
EXTT7=
EXTT8=
EXTT9=
EXTT10=
EXTT11=
EXTT12=
EXTT13=
EXTT14=
PLAYORDER=
